<svg width="20" height="20" viewBox="0 0 20 20" fill="none" xmlns="http://www.w3.org/2000/svg">
<path d="M11.0108 8.15562C10.7484 7.89319 10.437 7.68502 10.0942 7.54299C9.75134 7.40096 9.38391 7.32786 9.01285 7.32786C8.64178 7.32786 8.27435 7.40096 7.93155 7.54299C7.58874 7.68502 7.27727 7.89319 7.01493 8.15562L4.16077 11.0106C3.631 11.5405 3.33342 12.2591 3.3335 13.0084C3.33357 13.7577 3.6313 14.4763 4.16118 15.006C4.69106 15.5358 5.40969 15.8334 6.15898 15.8333C6.90826 15.8332 7.62683 15.5355 8.1566 15.0056L8.4241 14.7523M8.1566 11.0106C8.41894 11.2731 8.73041 11.4812 9.07321 11.6233C9.41602 11.7653 9.78345 11.8384 10.1545 11.8384C10.5256 11.8384 10.893 11.7653 11.2358 11.6233C11.5786 11.4812 11.8901 11.2731 12.1524 11.0106L15.0058 8.15562C15.5356 7.62585 15.8334 6.90729 15.8335 6.158C15.8335 5.40871 15.536 4.69009 15.0062 4.16021C14.4764 3.63033 13.7578 3.3326 13.0086 3.33252C12.2593 3.33244 11.5406 3.63002 11.0108 4.15979L10.1541 4.96062" stroke="#0056B3" stroke-width="2" stroke-linecap="round" stroke-linejoin="round"/>
</svg>
