<svg width="17" height="18" viewBox="0 0 17 18" fill="none" xmlns="http://www.w3.org/2000/svg">
<path d="M1.59036 4.51964C0.611071 4.51964 0 5.16393 0 6.18536V8.29464C0 9.17357 0.426786 9.77607 1.20536 9.92679V15.1332C1.20536 16.7154 2.0675 17.5439 3.64964 17.5439H12.6311C14.2132 17.5439 15.0754 16.7154 15.0754 15.1332V9.92714C15.8621 9.77643 16.2807 9.17393 16.2807 8.295V6.18571C16.2807 5.16429 15.72 4.52 14.6904 4.52H12.9154C13.3843 4.05929 13.6604 3.45679 13.6604 2.77893C13.6604 1.155 12.3796 0 10.7557 0C9.55893 0 8.57929 0.661071 8.14429 1.84143C7.70857 0.661071 6.72107 0 5.52429 0C3.90857 0 2.61964 1.155 2.61964 2.77857C2.61964 3.45714 2.8875 4.05964 3.35607 4.52L1.59036 4.51964ZM6.15214 4.51964C4.77107 4.51964 4.04286 3.7075 4.04286 2.83714C4.04286 1.93321 4.7125 1.3975 5.60821 1.3975C6.63786 1.3975 7.44964 2.1925 7.44964 3.52357V4.51964H6.15214ZM10.1282 4.51964H8.83072V3.52321C8.83072 2.1925 9.64286 1.3975 10.6725 1.3975C11.5682 1.3975 12.2461 1.93321 12.2461 2.83679C12.2461 3.7075 11.4925 4.51964 10.1282 4.51964ZM1.93357 5.78357H7.39964V8.69643H1.93321C1.51464 8.69643 1.3475 8.52071 1.3475 8.10214V6.36929C1.3475 5.95107 1.51464 5.78357 1.93321 5.78357M14.355 5.78357C14.7736 5.78357 14.9325 5.95107 14.9325 6.36929V8.10214C14.9325 8.52071 14.7736 8.69643 14.355 8.69643H8.88107V5.78357H14.355ZM3.64071 16.2886C2.93786 16.2886 2.55286 15.895 2.55286 15.2004V9.96036H7.39929V16.2886H3.64071ZM13.7279 15.2004C13.7279 15.895 13.3425 16.2886 12.6479 16.2886H8.88107V9.96036H13.7275L13.7279 15.2004Z" fill="#0056B3"/>
</svg>
