<svg width="80" height="80" viewBox="0 0 80 80" fill="none" xmlns="http://www.w3.org/2000/svg">
<path d="M70 40V16.6667C70 14.8986 69.2976 13.2029 68.0474 11.9526C66.7971 10.7024 65.1014 10 63.3333 10H16.6667C14.8986 10 13.2029 10.7024 11.9526 11.9526C10.7024 13.2029 10 14.8986 10 16.6667V53.3333M70 40V63.3333C70 65.1014 69.2976 66.7971 68.0474 68.0474C66.7971 69.2976 65.1014 70 63.3333 70H53.3333M70 40C48.5267 40 36.3167 46.6167 29.8167 54.1433M10 53.3333V63.3333C10 65.1014 10.7024 66.7971 11.9526 68.0474C13.2029 69.2976 14.8986 70 16.6667 70H53.3333M10 53.3333C14.6767 52.5533 22.1233 52.3567 29.8167 54.1433M53.3333 70C47.6533 60.7733 38.5767 56.1733 29.8167 54.1433M28.3333 23.3333C26.6667 23.3333 23.3333 24.3333 23.3333 28.3333C23.3333 32.3333 26.6667 33.3333 28.3333 33.3333C30 33.3333 33.3333 32.3333 33.3333 28.3333C33.3333 24.3333 30 23.3333 28.3333 23.3333Z" stroke="#0056B3" stroke-width="3" stroke-linecap="round" stroke-linejoin="round"/>
</svg>
